<svg xmlns="http://www.w3.org/2000/svg" viewBox="0 0 640 360" role="img" aria-label="The prime counting staircase compared with x over log x and the logarithmic integral" font-family="system-ui, sans-serif">
  <g fill="none" stroke="currentColor" stroke-opacity="0.35" stroke-width="1">
    <path d="M64 306 H606"/>
    <path d="M64 306 V46"/>
  </g>
  <g fill="currentColor" font-size="12" fill-opacity="0.7">
    <text x="64" y="324" text-anchor="middle">0</text>
    <text x="335" y="324" text-anchor="middle">50</text>
    <text x="606" y="324" text-anchor="middle">100</text>
    <text x="54" y="310" text-anchor="end">0</text>
    <text x="54" y="223.33333333333334" text-anchor="end">10</text>
    <text x="54" y="136.66666666666669" text-anchor="end">20</text>
    <text x="54" y="50" text-anchor="end">30</text>
  </g>
  <g fill="none" stroke="currentColor">
    <path d="M64.0 306.0 L74.8 306.0 L74.8 297.3 L80.3 297.3 L80.3 288.7 L91.1 288.7 L91.1 280.0 L101.9 280.0 L101.9 271.3 L123.6 271.3 L123.6 262.7 L134.5 262.7 L134.5 254.0 L156.1 254.0 L156.1 245.3 L167.0 245.3 L167.0 236.7 L188.7 236.7 L188.7 228.0 L221.2 228.0 L221.2 219.3 L232.0 219.3 L232.0 210.7 L264.5 210.7 L264.5 202.0 L286.2 202.0 L286.2 193.3 L297.1 193.3 L297.1 184.7 L318.7 184.7 L318.7 176.0 L351.3 176.0 L351.3 167.3 L383.8 167.3 L383.8 158.7 L394.6 158.7 L394.6 150.0 L427.1 150.0 L427.1 141.3 L448.8 141.3 L448.8 132.7 L459.7 132.7 L459.7 124.0 L492.2 124.0 L492.2 115.3 L513.9 115.3 L513.9 106.7 L546.4 106.7 L546.4 98.0 L589.7 98.0 L589.7 89.3 L606.0 89.3" stroke-width="2.4"/>
    <path d="M74.8 281.0 L80.3 282.3 L85.7 281.0 L91.1 279.1 L96.5 277.0 L101.9 274.8 L107.4 272.7 L112.8 270.5 L118.2 268.4 L123.6 266.2 L129.0 264.1 L134.5 262.1 L139.9 260.0 L145.3 258.0 L150.7 256.0 L156.1 254.0 L161.6 252.0 L167.0 250.1 L172.4 248.1 L177.8 246.2 L183.2 244.3 L188.7 242.4 L194.1 240.6 L199.5 238.7 L204.9 236.8 L210.3 235.0 L215.8 233.2 L221.2 231.4 L226.6 229.6 L232.0 227.8 L237.4 226.0 L242.9 224.2 L248.3 222.4 L253.7 220.7 L259.1 218.9 L264.5 217.2 L270.0 215.5 L275.4 213.7 L280.8 212.0 L286.2 210.3 L291.6 208.6 L297.1 206.9 L302.5 205.2 L307.9 203.5 L313.3 201.9 L318.7 200.2 L324.2 198.5 L329.6 196.9 L335.0 195.2 L340.4 193.6 L345.8 191.9 L351.3 190.3 L356.7 188.7 L362.1 187.1 L367.5 185.4 L372.9 183.8 L378.4 182.2 L383.8 180.6 L389.2 179.0 L394.6 177.4 L400.0 175.8 L405.5 174.2 L410.9 172.6 L416.3 171.1 L421.7 169.5 L427.1 167.9 L432.6 166.3 L438.0 164.8 L443.4 163.2 L448.8 161.6 L454.2 160.1 L459.7 158.5 L465.1 157.0 L470.5 155.4 L475.9 153.9 L481.3 152.4 L486.8 150.8 L492.2 149.3 L497.6 147.8 L503.0 146.3 L508.4 144.7 L513.9 143.2 L519.3 141.7 L524.7 140.2 L530.1 138.7 L535.5 137.2 L541.0 135.7 L546.4 134.2 L551.8 132.7 L557.2 131.2 L562.6 129.7 L568.1 128.2 L573.5 126.7 L578.9 125.2 L584.3 123.7 L589.7 122.2 L595.2 120.8 L600.6 119.3 L606.0 117.8" stroke-width="1.6" stroke-opacity="0.5" stroke-dasharray="5 4"/>
    <path d="M75.9 303.7 L81.3 294.8 L86.8 288.1 L92.2 282.5 L97.6 277.5 L103.0 272.9 L108.4 268.7 L113.9 264.7 L119.3 260.9 L124.7 257.2 L130.1 253.7 L135.5 250.3 L141.0 247.0 L146.4 243.7 L151.8 240.6 L157.2 237.5 L162.6 234.5 L168.1 231.5 L173.5 228.6 L178.9 225.8 L184.3 223.0 L189.7 220.2 L195.2 217.4 L200.6 214.7 L206.0 212.1 L211.4 209.4 L216.8 206.8 L222.3 204.2 L227.7 201.7 L233.1 199.2 L238.5 196.6 L243.9 194.2 L249.4 191.7 L254.8 189.3 L260.2 186.8 L265.6 184.4 L271.0 182.0 L276.5 179.7 L281.9 177.3 L287.3 175.0 L292.7 172.7 L298.1 170.3 L303.6 168.0 L309.0 165.8 L314.4 163.5 L319.8 161.2 L325.2 159.0 L330.7 156.8 L336.1 154.6 L341.5 152.3 L346.9 150.1 L352.3 148.0 L357.8 145.8 L363.2 143.6 L368.6 141.5 L374.0 139.3 L379.4 137.2 L384.9 135.1 L390.3 132.9 L395.7 130.8 L401.1 128.7 L406.5 126.6 L412.0 124.5 L417.4 122.5 L422.8 120.4 L428.2 118.3 L433.6 116.3 L439.1 114.2 L444.5 112.2 L449.9 110.1 L455.3 108.1 L460.7 106.1 L466.2 104.1 L471.6 102.1 L477.0 100.1 L482.4 98.1 L487.8 96.1 L493.3 94.1 L498.7 92.1 L504.1 90.1 L509.5 88.2 L514.9 86.2 L520.4 84.3 L525.8 82.3 L531.2 80.4 L536.6 78.4 L542.0 76.5 L547.5 74.5 L552.9 72.6 L558.3 70.7 L563.7 68.8 L569.1 66.9 L574.6 65.0 L580.0 63.0 L585.4 61.1 L590.8 59.3 L596.2 57.4 L601.7 55.5" stroke-width="1.6" stroke-opacity="0.85" stroke-dasharray="1 4" stroke-linecap="round"/>
  </g>
  <g fill="none" stroke="currentColor">
    <path d="M85.68 54.66666666666666 h26" stroke-width="2.4"/>
    <path d="M85.68 74.66666666666666 h26" stroke-width="1.6" stroke-opacity="0.85" stroke-dasharray="1 4" stroke-linecap="round"/>
    <path d="M85.68 94.66666666666666 h26" stroke-width="1.6" stroke-opacity="0.5" stroke-dasharray="5 4"/>
  </g>
  <g fill="currentColor" font-size="13">
    <text x="119.68" y="58.66666666666666">primes counted, one step each</text>
    <text x="119.68" y="78.66666666666666" fill-opacity="0.85">Li(x), the good approximation</text>
    <text x="119.68" y="98.66666666666666" fill-opacity="0.65">x / log x, the crude one</text>
  </g>
  <g fill="currentColor" font-size="13">
    <text x="64" y="26">Every step is a prime. They thin out at rate 1 in log x.</text>
    <text x="64" y="352" font-size="12" fill-opacity="0.75">At x = 100: 25 primes; x/log x says 21.7, Li(x) says 29.1.</text>
  </g>
</svg>