<svg xmlns="http://www.w3.org/2000/svg" viewBox="0 0 620 300" role="img" aria-label="Two pictures of the same function: vertical columns over the domain, and horizontal level bands whose preimages are measured" font-family="system-ui, sans-serif">
  <g transform="translate(40,10)">
    <text x="0" y="14" font-size="14" fill="currentColor">Riemann: cut the domain</text>
    <rect x="0.0" y="92.7" width="25.0" height="127.3" fill="currentColor" fill-opacity="0.10" stroke="currentColor" stroke-opacity="0.45" stroke-width="0.8"/><rect x="25.0" y="97.4" width="25.0" height="122.6" fill="currentColor" fill-opacity="0.10" stroke="currentColor" stroke-opacity="0.45" stroke-width="0.8"/><rect x="50.0" y="116.1" width="25.0" height="103.9" fill="currentColor" fill-opacity="0.10" stroke="currentColor" stroke-opacity="0.45" stroke-width="0.8"/><rect x="75.0" y="104.3" width="25.0" height="115.7" fill="currentColor" fill-opacity="0.10" stroke="currentColor" stroke-opacity="0.45" stroke-width="0.8"/><rect x="100.0" y="123.3" width="25.0" height="96.7" fill="currentColor" fill-opacity="0.10" stroke="currentColor" stroke-opacity="0.45" stroke-width="0.8"/><rect x="125.0" y="186.7" width="25.0" height="33.3" fill="currentColor" fill-opacity="0.10" stroke="currentColor" stroke-opacity="0.45" stroke-width="0.8"/><rect x="150.0" y="200.7" width="25.0" height="19.3" fill="currentColor" fill-opacity="0.10" stroke="currentColor" stroke-opacity="0.45" stroke-width="0.8"/><rect x="175.0" y="145.1" width="25.0" height="74.9" fill="currentColor" fill-opacity="0.10" stroke="currentColor" stroke-opacity="0.45" stroke-width="0.8"/><rect x="200.0" y="111.8" width="25.0" height="108.2" fill="currentColor" fill-opacity="0.10" stroke="currentColor" stroke-opacity="0.45" stroke-width="0.8"/><rect x="225.0" y="119.8" width="25.0" height="100.2" fill="currentColor" fill-opacity="0.10" stroke="currentColor" stroke-opacity="0.45" stroke-width="0.8"/>
    <polyline points="0.0,116.7 1.0,114.2 2.0,111.7 3.0,109.4 4.0,107.2 5.0,105.0 6.0,103.0 7.0,101.1 8.0,99.3 9.0,97.6 10.0,96.0 11.0,94.6 12.0,93.3 13.0,92.1 14.0,91.0 15.0,90.1 16.0,89.3 17.0,88.6 18.0,88.1 19.0,87.7 20.0,87.4 21.0,87.2 22.0,87.1 23.0,87.2 24.0,87.3 25.0,87.6 26.0,88.0 27.0,88.4 28.0,89.0 29.0,89.6 30.0,90.3 31.0,91.1 32.0,91.9 33.0,92.8 34.0,93.8 35.0,94.8 36.0,95.8 37.0,96.9 38.0,98.0 39.0,99.1 40.0,100.2 41.0,101.3 42.0,102.4 43.0,103.5 44.0,104.6 45.0,105.7 46.0,106.7 47.0,107.7 48.0,108.7 49.0,109.6 50.0,110.5 51.0,111.3 52.0,112.1 53.0,112.8 54.0,113.4 55.0,114.0 56.0,114.5 57.0,114.9 58.0,115.3 59.0,115.6 60.0,115.8 61.0,116.0 62.0,116.0 63.0,116.0 64.0,116.0 65.0,115.9 66.0,115.7 67.0,115.4 68.0,115.1 69.0,114.7 70.0,114.3 71.0,113.8 72.0,113.3 73.0,112.8 74.0,112.2 75.0,111.6 76.0,111.0 77.0,110.3 78.0,109.7 79.0,109.0 80.0,108.4 81.0,107.7 82.0,107.1 83.0,106.5 84.0,105.9 85.0,105.4 86.0,104.9 87.0,104.5 88.0,104.1 89.0,103.8 90.0,103.5 91.0,103.3 92.0,103.2 93.0,103.2 94.0,103.3 95.0,103.4 96.0,103.7 97.0,104.0 98.0,104.5 99.0,105.0 100.0,105.7 101.0,106.5 102.0,107.4 103.0,108.4 104.0,109.5 105.0,110.7 106.0,112.0 107.0,113.5 108.0,115.0 109.0,116.7 110.0,118.5 111.0,120.3 112.0,122.3 113.0,124.4 114.0,126.5 115.0,128.8 116.0,131.1 117.0,133.5 118.0,135.9 119.0,138.4 120.0,141.0 121.0,143.6 122.0,146.3 123.0,149.0 124.0,151.7 125.0,154.5 126.0,157.2 127.0,159.9 128.0,162.7 129.0,165.4 130.0,168.1 131.0,170.8 132.0,173.4 133.0,176.0 134.0,178.5 135.0,180.9 136.0,183.3 137.0,185.6 138.0,187.8 139.0,189.9 140.0,191.9 141.0,193.8 142.0,195.6 143.0,197.2 144.0,198.8 145.0,200.2 146.0,201.4 147.0,202.6 148.0,203.5 149.0,204.4 150.0,205.1 151.0,205.6 152.0,206.0 153.0,206.2 154.0,206.2 155.0,206.2 156.0,205.9 157.0,205.5 158.0,205.0 159.0,204.3 160.0,203.4 161.0,202.5 162.0,201.3 163.0,200.1 164.0,198.7 165.0,197.2 166.0,195.6 167.0,193.8 168.0,192.0 169.0,190.0 170.0,188.0 171.0,185.8 172.0,183.6 173.0,181.3 174.0,179.0 175.0,176.6 176.0,174.1 177.0,171.6 178.0,169.1 179.0,166.6 180.0,164.0 181.0,161.4 182.0,158.9 183.0,156.3 184.0,153.8 185.0,151.3 186.0,148.8 187.0,146.3 188.0,143.9 189.0,141.6 190.0,139.3 191.0,137.1 192.0,135.0 193.0,132.9 194.0,130.9 195.0,129.0 196.0,127.2 197.0,125.5 198.0,123.9 199.0,122.3 200.0,120.9 201.0,119.6 202.0,118.4 203.0,117.3 204.0,116.3 205.0,115.4 206.0,114.6 207.0,113.9 208.0,113.3 209.0,112.8 210.0,112.4 211.0,112.1 212.0,111.8 213.0,111.7 214.0,111.7 215.0,111.7 216.0,111.8 217.0,111.9 218.0,112.1 219.0,112.4 220.0,112.7 221.0,113.1 222.0,113.5 223.0,113.9 224.0,114.4 225.0,114.9 226.0,115.3 227.0,115.8 228.0,116.3 229.0,116.8 230.0,117.3 231.0,117.7 232.0,118.1 233.0,118.5 234.0,118.9 235.0,119.2 236.0,119.5 237.0,119.7 238.0,119.8 239.0,119.9 240.0,120.0 241.0,120.0 242.0,119.9 243.0,119.7 244.0,119.5 245.0,119.1 246.0,118.8 247.0,118.3 248.0,117.8 249.0,117.2 250.0,116.5" fill="none" stroke="currentColor" stroke-width="1.8"/>
    <path d="M0 220 H250" stroke="currentColor" stroke-width="1.2" fill="none"/>
    <text x="0" y="264" font-size="12.5" fill="currentColor" fill-opacity="0.8">Add up column areas. Needs the</text>
    <text x="0" y="280" font-size="12.5" fill="currentColor" fill-opacity="0.8">function to be calm on each column.</text>
  </g>
  <g transform="translate(330,10)">
    <text x="0" y="14" font-size="14" fill="currentColor">Lebesgue: cut the range</text>
    <rect x="0" y="179.2" width="250" height="30.6" fill="currentColor" fill-opacity="0.06"/><path d="M0 179.2 H250" stroke="currentColor" stroke-opacity="0.4" stroke-width="0.8" fill="none"/><path d="M134.5 230 H174.0" stroke="currentColor" stroke-width="3.2" stroke-opacity="0.35" stroke-linecap="butt" fill="none"/><rect x="0" y="148.6" width="250" height="30.6" fill="currentColor" fill-opacity="0.11"/><path d="M0 148.6 H250" stroke="currentColor" stroke-opacity="0.4" stroke-width="0.8" fill="none"/><path d="M123.0 237 H134.5" stroke="currentColor" stroke-width="3.2" stroke-opacity="0.47" stroke-linecap="butt" fill="none"/><path d="M174.0 237 H186.5" stroke="currentColor" stroke-width="3.2" stroke-opacity="0.47" stroke-linecap="butt" fill="none"/><rect x="0" y="118.0" width="250" height="30.6" fill="currentColor" fill-opacity="0.16"/><path d="M0 118.0 H250" stroke="currentColor" stroke-opacity="0.4" stroke-width="0.8" fill="none"/><path d="M110.0 244 H123.0" stroke="currentColor" stroke-width="3.2" stroke-opacity="0.59" stroke-linecap="butt" fill="none"/><path d="M186.5 244 H202.5" stroke="currentColor" stroke-width="3.2" stroke-opacity="0.59" stroke-linecap="butt" fill="none"/><path d="M232.0 244 H248.0" stroke="currentColor" stroke-width="3.2" stroke-opacity="0.59" stroke-linecap="butt" fill="none"/><rect x="0" y="87.4" width="250" height="30.6" fill="currentColor" fill-opacity="0.21"/><path d="M0 87.4 H250" stroke="currentColor" stroke-opacity="0.4" stroke-width="0.8" fill="none"/><path d="M0.0 251 H20.0" stroke="currentColor" stroke-width="3.2" stroke-opacity="0.71" stroke-linecap="butt" fill="none"/><path d="M24.5 251 H110.0" stroke="currentColor" stroke-width="3.2" stroke-opacity="0.71" stroke-linecap="butt" fill="none"/><path d="M202.5 251 H232.0" stroke="currentColor" stroke-width="3.2" stroke-opacity="0.71" stroke-linecap="butt" fill="none"/><path d="M248.0 251 H250.0" stroke="currentColor" stroke-width="3.2" stroke-opacity="0.71" stroke-linecap="butt" fill="none"/><rect x="0" y="56.8" width="250" height="30.6" fill="currentColor" fill-opacity="0.26"/><path d="M0 56.8 H250" stroke="currentColor" stroke-opacity="0.4" stroke-width="0.8" fill="none"/><path d="M20.0 258 H24.5" stroke="currentColor" stroke-width="3.2" stroke-opacity="0.83" stroke-linecap="butt" fill="none"/>
    <polyline points="0.0,116.7 1.0,114.2 2.0,111.7 3.0,109.4 4.0,107.2 5.0,105.0 6.0,103.0 7.0,101.1 8.0,99.3 9.0,97.6 10.0,96.0 11.0,94.6 12.0,93.3 13.0,92.1 14.0,91.0 15.0,90.1 16.0,89.3 17.0,88.6 18.0,88.1 19.0,87.7 20.0,87.4 21.0,87.2 22.0,87.1 23.0,87.2 24.0,87.3 25.0,87.6 26.0,88.0 27.0,88.4 28.0,89.0 29.0,89.6 30.0,90.3 31.0,91.1 32.0,91.9 33.0,92.8 34.0,93.8 35.0,94.8 36.0,95.8 37.0,96.9 38.0,98.0 39.0,99.1 40.0,100.2 41.0,101.3 42.0,102.4 43.0,103.5 44.0,104.6 45.0,105.7 46.0,106.7 47.0,107.7 48.0,108.7 49.0,109.6 50.0,110.5 51.0,111.3 52.0,112.1 53.0,112.8 54.0,113.4 55.0,114.0 56.0,114.5 57.0,114.9 58.0,115.3 59.0,115.6 60.0,115.8 61.0,116.0 62.0,116.0 63.0,116.0 64.0,116.0 65.0,115.9 66.0,115.7 67.0,115.4 68.0,115.1 69.0,114.7 70.0,114.3 71.0,113.8 72.0,113.3 73.0,112.8 74.0,112.2 75.0,111.6 76.0,111.0 77.0,110.3 78.0,109.7 79.0,109.0 80.0,108.4 81.0,107.7 82.0,107.1 83.0,106.5 84.0,105.9 85.0,105.4 86.0,104.9 87.0,104.5 88.0,104.1 89.0,103.8 90.0,103.5 91.0,103.3 92.0,103.2 93.0,103.2 94.0,103.3 95.0,103.4 96.0,103.7 97.0,104.0 98.0,104.5 99.0,105.0 100.0,105.7 101.0,106.5 102.0,107.4 103.0,108.4 104.0,109.5 105.0,110.7 106.0,112.0 107.0,113.5 108.0,115.0 109.0,116.7 110.0,118.5 111.0,120.3 112.0,122.3 113.0,124.4 114.0,126.5 115.0,128.8 116.0,131.1 117.0,133.5 118.0,135.9 119.0,138.4 120.0,141.0 121.0,143.6 122.0,146.3 123.0,149.0 124.0,151.7 125.0,154.5 126.0,157.2 127.0,159.9 128.0,162.7 129.0,165.4 130.0,168.1 131.0,170.8 132.0,173.4 133.0,176.0 134.0,178.5 135.0,180.9 136.0,183.3 137.0,185.6 138.0,187.8 139.0,189.9 140.0,191.9 141.0,193.8 142.0,195.6 143.0,197.2 144.0,198.8 145.0,200.2 146.0,201.4 147.0,202.6 148.0,203.5 149.0,204.4 150.0,205.1 151.0,205.6 152.0,206.0 153.0,206.2 154.0,206.2 155.0,206.2 156.0,205.9 157.0,205.5 158.0,205.0 159.0,204.3 160.0,203.4 161.0,202.5 162.0,201.3 163.0,200.1 164.0,198.7 165.0,197.2 166.0,195.6 167.0,193.8 168.0,192.0 169.0,190.0 170.0,188.0 171.0,185.8 172.0,183.6 173.0,181.3 174.0,179.0 175.0,176.6 176.0,174.1 177.0,171.6 178.0,169.1 179.0,166.6 180.0,164.0 181.0,161.4 182.0,158.9 183.0,156.3 184.0,153.8 185.0,151.3 186.0,148.8 187.0,146.3 188.0,143.9 189.0,141.6 190.0,139.3 191.0,137.1 192.0,135.0 193.0,132.9 194.0,130.9 195.0,129.0 196.0,127.2 197.0,125.5 198.0,123.9 199.0,122.3 200.0,120.9 201.0,119.6 202.0,118.4 203.0,117.3 204.0,116.3 205.0,115.4 206.0,114.6 207.0,113.9 208.0,113.3 209.0,112.8 210.0,112.4 211.0,112.1 212.0,111.8 213.0,111.7 214.0,111.7 215.0,111.7 216.0,111.8 217.0,111.9 218.0,112.1 219.0,112.4 220.0,112.7 221.0,113.1 222.0,113.5 223.0,113.9 224.0,114.4 225.0,114.9 226.0,115.3 227.0,115.8 228.0,116.3 229.0,116.8 230.0,117.3 231.0,117.7 232.0,118.1 233.0,118.5 234.0,118.9 235.0,119.2 236.0,119.5 237.0,119.7 238.0,119.8 239.0,119.9 240.0,120.0 241.0,120.0 242.0,119.9 243.0,119.7 244.0,119.5 245.0,119.1 246.0,118.8 247.0,118.3 248.0,117.8 249.0,117.2 250.0,116.5" fill="none" stroke="currentColor" stroke-width="1.8"/>
    <path d="M0 220 H250" stroke="currentColor" stroke-width="1.2" fill="none"/>
    <text x="0" y="282" font-size="12.5" fill="currentColor" fill-opacity="0.8">For each band, measure the set below</text>
    <text x="0" y="298" font-size="12.5" fill="currentColor" fill-opacity="0.8">it. The set may be in many pieces.</text>
  </g>
</svg>
