<svg xmlns="http://www.w3.org/2000/svg" viewBox="0 0 520 283" role="img" aria-label="Schelling's checkerboard before and after" font-family="system-ui, sans-serif">
  <g fill="currentColor" font-size="14">
    <text x="24" y="26">Random start</text>
    <text x="288" y="26">Everybody content</text>
  </g>
  <g fill="currentColor" font-size="12" fill-opacity="0.75">
    <text x="24" y="44">53% of neighbours are your own colour</text>
    <text x="288" y="44">75%, once nobody wants to move again</text>
    <text x="24" y="261">138 coins, 70 empty squares, eight neighbours each.</text>
    <text x="288" y="261">Everyone got what they asked for. Nobody asked for this.</text>
  </g>
  <rect x="21" y="55" width="214" height="175" fill="none" stroke="currentColor" stroke-width="1.2" stroke-opacity="0.45" rx="3"/>
  <g fill="currentColor" fill-opacity="0.9"><circle cx="70" cy="65" r="4.3"/><circle cx="148" cy="65" r="4.3"/><circle cx="187" cy="65" r="4.3"/><circle cx="200" cy="65" r="4.3"/><circle cx="213" cy="65" r="4.3"/><circle cx="226" cy="65" r="4.3"/><circle cx="44" cy="78" r="4.3"/><circle cx="57" cy="78" r="4.3"/><circle cx="122" cy="78" r="4.3"/><circle cx="187" cy="78" r="4.3"/><circle cx="200" cy="78" r="4.3"/><circle cx="226" cy="78" r="4.3"/><circle cx="70" cy="91" r="4.3"/><circle cx="83" cy="91" r="4.3"/><circle cx="122" cy="91" r="4.3"/><circle cx="148" cy="104" r="4.3"/><circle cx="174" cy="104" r="4.3"/><circle cx="187" cy="104" r="4.3"/><circle cx="213" cy="104" r="4.3"/><circle cx="226" cy="104" r="4.3"/><circle cx="57" cy="117" r="4.3"/><circle cx="70" cy="117" r="4.3"/><circle cx="135" cy="117" r="4.3"/><circle cx="148" cy="117" r="4.3"/><circle cx="161" cy="117" r="4.3"/><circle cx="187" cy="117" r="4.3"/><circle cx="213" cy="117" r="4.3"/><circle cx="83" cy="130" r="4.3"/><circle cx="148" cy="130" r="4.3"/><circle cx="161" cy="130" r="4.3"/><circle cx="200" cy="130" r="4.3"/><circle cx="213" cy="130" r="4.3"/><circle cx="226" cy="130" r="4.3"/><circle cx="31" cy="143" r="4.3"/><circle cx="96" cy="143" r="4.3"/><circle cx="187" cy="143" r="4.3"/><circle cx="200" cy="143" r="4.3"/><circle cx="70" cy="156" r="4.3"/><circle cx="83" cy="156" r="4.3"/><circle cx="96" cy="156" r="4.3"/><circle cx="109" cy="156" r="4.3"/><circle cx="31" cy="169" r="4.3"/><circle cx="44" cy="169" r="4.3"/><circle cx="57" cy="169" r="4.3"/><circle cx="200" cy="169" r="4.3"/><circle cx="96" cy="182" r="4.3"/><circle cx="135" cy="182" r="4.3"/><circle cx="161" cy="182" r="4.3"/><circle cx="174" cy="182" r="4.3"/><circle cx="187" cy="182" r="4.3"/><circle cx="200" cy="182" r="4.3"/><circle cx="96" cy="195" r="4.3"/><circle cx="109" cy="195" r="4.3"/><circle cx="135" cy="195" r="4.3"/><circle cx="148" cy="195" r="4.3"/><circle cx="161" cy="195" r="4.3"/><circle cx="70" cy="208" r="4.3"/><circle cx="109" cy="208" r="4.3"/><circle cx="122" cy="208" r="4.3"/><circle cx="135" cy="208" r="4.3"/><circle cx="148" cy="208" r="4.3"/><circle cx="174" cy="208" r="4.3"/><circle cx="226" cy="208" r="4.3"/><circle cx="44" cy="221" r="4.3"/><circle cx="83" cy="221" r="4.3"/><circle cx="96" cy="221" r="4.3"/><circle cx="135" cy="221" r="4.3"/><circle cx="213" cy="221" r="4.3"/><circle cx="226" cy="221" r="4.3"/></g>
  <g fill="none" stroke="currentColor" stroke-width="1.4" stroke-opacity="0.85"><circle cx="31" cy="65" r="3.8"/><circle cx="44" cy="65" r="3.8"/><circle cx="57" cy="65" r="3.8"/><circle cx="83" cy="65" r="3.8"/><circle cx="96" cy="65" r="3.8"/><circle cx="122" cy="65" r="3.8"/><circle cx="161" cy="65" r="3.8"/><circle cx="70" cy="78" r="3.8"/><circle cx="109" cy="78" r="3.8"/><circle cx="148" cy="78" r="3.8"/><circle cx="161" cy="78" r="3.8"/><circle cx="174" cy="78" r="3.8"/><circle cx="57" cy="91" r="3.8"/><circle cx="96" cy="91" r="3.8"/><circle cx="109" cy="91" r="3.8"/><circle cx="187" cy="91" r="3.8"/><circle cx="200" cy="91" r="3.8"/><circle cx="213" cy="91" r="3.8"/><circle cx="226" cy="91" r="3.8"/><circle cx="70" cy="104" r="3.8"/><circle cx="96" cy="104" r="3.8"/><circle cx="109" cy="104" r="3.8"/><circle cx="135" cy="104" r="3.8"/><circle cx="44" cy="117" r="3.8"/><circle cx="109" cy="117" r="3.8"/><circle cx="226" cy="117" r="3.8"/><circle cx="44" cy="130" r="3.8"/><circle cx="70" cy="130" r="3.8"/><circle cx="83" cy="143" r="3.8"/><circle cx="122" cy="143" r="3.8"/><circle cx="135" cy="143" r="3.8"/><circle cx="174" cy="143" r="3.8"/><circle cx="213" cy="143" r="3.8"/><circle cx="226" cy="143" r="3.8"/><circle cx="44" cy="156" r="3.8"/><circle cx="122" cy="156" r="3.8"/><circle cx="135" cy="156" r="3.8"/><circle cx="187" cy="156" r="3.8"/><circle cx="226" cy="156" r="3.8"/><circle cx="83" cy="169" r="3.8"/><circle cx="96" cy="169" r="3.8"/><circle cx="109" cy="169" r="3.8"/><circle cx="122" cy="169" r="3.8"/><circle cx="135" cy="169" r="3.8"/><circle cx="148" cy="169" r="3.8"/><circle cx="161" cy="169" r="3.8"/><circle cx="174" cy="169" r="3.8"/><circle cx="187" cy="169" r="3.8"/><circle cx="213" cy="169" r="3.8"/><circle cx="44" cy="182" r="3.8"/><circle cx="57" cy="182" r="3.8"/><circle cx="109" cy="182" r="3.8"/><circle cx="213" cy="182" r="3.8"/><circle cx="226" cy="182" r="3.8"/><circle cx="44" cy="195" r="3.8"/><circle cx="57" cy="195" r="3.8"/><circle cx="83" cy="195" r="3.8"/><circle cx="200" cy="195" r="3.8"/><circle cx="226" cy="195" r="3.8"/><circle cx="44" cy="208" r="3.8"/><circle cx="83" cy="208" r="3.8"/><circle cx="96" cy="208" r="3.8"/><circle cx="213" cy="208" r="3.8"/><circle cx="31" cy="221" r="3.8"/><circle cx="57" cy="221" r="3.8"/><circle cx="122" cy="221" r="3.8"/><circle cx="148" cy="221" r="3.8"/><circle cx="161" cy="221" r="3.8"/><circle cx="174" cy="221" r="3.8"/></g>
  <rect x="285" y="55" width="214" height="175" fill="none" stroke="currentColor" stroke-width="1.2" stroke-opacity="0.45" rx="3"/>
  <g fill="currentColor" fill-opacity="0.9"><circle cx="321" cy="65" r="4.3"/><circle cx="334" cy="65" r="4.3"/><circle cx="451" cy="65" r="4.3"/><circle cx="464" cy="65" r="4.3"/><circle cx="477" cy="65" r="4.3"/><circle cx="490" cy="65" r="4.3"/><circle cx="321" cy="78" r="4.3"/><circle cx="334" cy="78" r="4.3"/><circle cx="399" cy="78" r="4.3"/><circle cx="451" cy="78" r="4.3"/><circle cx="464" cy="78" r="4.3"/><circle cx="490" cy="78" r="4.3"/><circle cx="334" cy="91" r="4.3"/><circle cx="399" cy="91" r="4.3"/><circle cx="412" cy="91" r="4.3"/><circle cx="321" cy="104" r="4.3"/><circle cx="334" cy="104" r="4.3"/><circle cx="412" cy="104" r="4.3"/><circle cx="438" cy="104" r="4.3"/><circle cx="451" cy="104" r="4.3"/><circle cx="477" cy="104" r="4.3"/><circle cx="490" cy="104" r="4.3"/><circle cx="399" cy="117" r="4.3"/><circle cx="412" cy="117" r="4.3"/><circle cx="425" cy="117" r="4.3"/><circle cx="451" cy="117" r="4.3"/><circle cx="477" cy="117" r="4.3"/><circle cx="347" cy="130" r="4.3"/><circle cx="412" cy="130" r="4.3"/><circle cx="425" cy="130" r="4.3"/><circle cx="451" cy="130" r="4.3"/><circle cx="464" cy="130" r="4.3"/><circle cx="477" cy="130" r="4.3"/><circle cx="490" cy="130" r="4.3"/><circle cx="360" cy="143" r="4.3"/><circle cx="373" cy="143" r="4.3"/><circle cx="464" cy="143" r="4.3"/><circle cx="477" cy="143" r="4.3"/><circle cx="295" cy="156" r="4.3"/><circle cx="334" cy="156" r="4.3"/><circle cx="347" cy="156" r="4.3"/><circle cx="360" cy="156" r="4.3"/><circle cx="295" cy="169" r="4.3"/><circle cx="308" cy="169" r="4.3"/><circle cx="321" cy="169" r="4.3"/><circle cx="334" cy="169" r="4.3"/><circle cx="347" cy="169" r="4.3"/><circle cx="295" cy="182" r="4.3"/><circle cx="412" cy="182" r="4.3"/><circle cx="425" cy="182" r="4.3"/><circle cx="373" cy="195" r="4.3"/><circle cx="386" cy="195" r="4.3"/><circle cx="399" cy="195" r="4.3"/><circle cx="412" cy="195" r="4.3"/><circle cx="425" cy="195" r="4.3"/><circle cx="438" cy="195" r="4.3"/><circle cx="451" cy="195" r="4.3"/><circle cx="373" cy="208" r="4.3"/><circle cx="386" cy="208" r="4.3"/><circle cx="399" cy="208" r="4.3"/><circle cx="412" cy="208" r="4.3"/><circle cx="438" cy="208" r="4.3"/><circle cx="464" cy="208" r="4.3"/><circle cx="490" cy="208" r="4.3"/><circle cx="347" cy="221" r="4.3"/><circle cx="360" cy="221" r="4.3"/><circle cx="399" cy="221" r="4.3"/><circle cx="477" cy="221" r="4.3"/><circle cx="490" cy="221" r="4.3"/></g>
  <g fill="none" stroke="currentColor" stroke-width="1.4" stroke-opacity="0.85"><circle cx="295" cy="65" r="3.8"/><circle cx="308" cy="65" r="3.8"/><circle cx="347" cy="65" r="3.8"/><circle cx="360" cy="65" r="3.8"/><circle cx="386" cy="65" r="3.8"/><circle cx="425" cy="65" r="3.8"/><circle cx="438" cy="65" r="3.8"/><circle cx="295" cy="78" r="3.8"/><circle cx="308" cy="78" r="3.8"/><circle cx="347" cy="78" r="3.8"/><circle cx="373" cy="78" r="3.8"/><circle cx="412" cy="78" r="3.8"/><circle cx="425" cy="78" r="3.8"/><circle cx="438" cy="78" r="3.8"/><circle cx="360" cy="91" r="3.8"/><circle cx="373" cy="91" r="3.8"/><circle cx="425" cy="91" r="3.8"/><circle cx="438" cy="91" r="3.8"/><circle cx="347" cy="104" r="3.8"/><circle cx="360" cy="104" r="3.8"/><circle cx="373" cy="104" r="3.8"/><circle cx="386" cy="104" r="3.8"/><circle cx="308" cy="117" r="3.8"/><circle cx="347" cy="117" r="3.8"/><circle cx="373" cy="117" r="3.8"/><circle cx="308" cy="130" r="3.8"/><circle cx="321" cy="130" r="3.8"/><circle cx="308" cy="143" r="3.8"/><circle cx="386" cy="143" r="3.8"/><circle cx="399" cy="143" r="3.8"/><circle cx="451" cy="143" r="3.8"/><circle cx="386" cy="156" r="3.8"/><circle cx="399" cy="156" r="3.8"/><circle cx="425" cy="156" r="3.8"/><circle cx="438" cy="156" r="3.8"/><circle cx="451" cy="156" r="3.8"/><circle cx="464" cy="156" r="3.8"/><circle cx="477" cy="156" r="3.8"/><circle cx="490" cy="156" r="3.8"/><circle cx="360" cy="169" r="3.8"/><circle cx="373" cy="169" r="3.8"/><circle cx="386" cy="169" r="3.8"/><circle cx="399" cy="169" r="3.8"/><circle cx="412" cy="169" r="3.8"/><circle cx="425" cy="169" r="3.8"/><circle cx="438" cy="169" r="3.8"/><circle cx="451" cy="169" r="3.8"/><circle cx="477" cy="169" r="3.8"/><circle cx="490" cy="169" r="3.8"/><circle cx="321" cy="182" r="3.8"/><circle cx="334" cy="182" r="3.8"/><circle cx="347" cy="182" r="3.8"/><circle cx="373" cy="182" r="3.8"/><circle cx="386" cy="182" r="3.8"/><circle cx="399" cy="182" r="3.8"/><circle cx="451" cy="182" r="3.8"/><circle cx="477" cy="182" r="3.8"/><circle cx="490" cy="182" r="3.8"/><circle cx="308" cy="195" r="3.8"/><circle cx="321" cy="195" r="3.8"/><circle cx="347" cy="195" r="3.8"/><circle cx="360" cy="195" r="3.8"/><circle cx="464" cy="195" r="3.8"/><circle cx="477" cy="195" r="3.8"/><circle cx="490" cy="195" r="3.8"/><circle cx="308" cy="208" r="3.8"/><circle cx="347" cy="208" r="3.8"/><circle cx="295" cy="221" r="3.8"/><circle cx="321" cy="221" r="3.8"/></g>
</svg>
