<svg xmlns="http://www.w3.org/2000/svg" viewBox="0 0 520 340" role="img" aria-label="The prospect theory value function: an S-shaped curve through the origin, much steeper on the loss side" font-family="system-ui, sans-serif">
  <g stroke="currentColor" fill="none">
    <path d="M60 176 H460" stroke-width="1.2" stroke-opacity="0.4"/>
    <path d="M260 44 V308" stroke-width="1.2" stroke-opacity="0.4"/>
    <path d="M64.0 288.5 L72.2 284.4 L80.3 280.2 L88.5 276.0 L96.7 271.8 L104.8 267.6 L113.0 263.3 L121.2 259.1 L129.3 254.7 L137.5 250.4 L145.7 246.0 L153.8 241.6 L162.0 237.1 L170.2 232.6 L178.3 228.1 L186.5 223.5 L194.7 218.8 L202.8 214.0 L211.0 209.2 L219.2 204.3 L227.3 199.2 L235.5 194.0 L243.7 188.6 L251.8 182.9 L260.0 176.0" stroke-width="2.6"/>
    <path d="M260.0 176.0 L268.2 172.9 L276.3 170.4 L284.5 168.0 L292.7 165.7 L300.8 163.4 L309.0 161.2 L317.2 159.1 L325.3 157.0 L333.5 154.9 L341.7 152.9 L349.8 150.8 L358.0 148.8 L366.2 146.8 L374.3 144.9 L382.5 142.9 L390.7 141.0 L398.8 139.1 L407.0 137.2 L415.2 135.3 L423.3 133.4 L431.5 131.5 L439.7 129.7 L447.8 127.8 L456.0 126.0" stroke-width="2.6"/>
    <path d="M212 176 L260 176 L260 230" stroke-width="1.1" stroke-opacity="0.5" stroke-dasharray="4 4"/>
    <path d="M260 176 L308 176 L308 152" stroke-width="1.1" stroke-opacity="0.5" stroke-dasharray="4 4"/>
  </g>
  <g fill="currentColor" font-size="13">
    <text x="470" y="180">gains</text>
    <text x="60" y="170">losses</text>
    <text x="268" y="40">value</text>
    <text x="316" y="146">a gain of 1 feels like +1</text>
    <text x="96" y="246">the same loss feels like &#8722;2.25</text>
  </g>
  <g fill="currentColor" font-size="12" fill-opacity="0.75">
    <text x="262" y="196">reference point</text>
    <text x="60" y="326">Flat in both tails, mirrored, and kinked where you are standing.</text>
  </g>
</svg>